<?xml version="1.0" standalone="no"?><!DOCTYPE svg PUBLIC "-//W3C//DTD SVG 1.1//EN" "http://www.w3.org/Graphics/SVG/1.1/DTD/svg11.dtd"><svg class="icon" width="200px" height="200.00px" viewBox="0 0 1024 1024" version="1.1" xmlns="http://www.w3.org/2000/svg"><path fill="#333333" d="M79.061333 512a807.466667 807.466667 0 0 1 109.653334-148.778667C265.941333 280.746667 375.466667 202.666667 512 202.666667s246.016 78.08 323.328 160.554666A807.466667 807.466667 0 0 1 944.981333 512a807.466667 807.466667 0 0 1-109.653333 148.778667C758.016 743.253333 648.533333 821.333333 512 821.333333s-246.016-78.08-323.328-160.554666A807.466667 807.466667 0 0 1 79.018667 512zM981.333333 512l28.586667-14.336v-0.128l-0.170667-0.256-0.426666-0.853333a507.562667 507.562667 0 0 0-7.978667-14.72 871.424 871.424 0 0 0-119.296-162.218667C799.274667 231.210667 674.133333 138.624 512 138.624S224.682667 231.253333 141.994667 319.445333a871.466667 871.466667 0 0 0-119.296 162.218667 505.386667 505.386667 0 0 0-7.978667 14.72l-0.469333 0.896-0.128 0.256-0.042667 0.085333s0 0.085333 28.586667 14.378667l-28.586667-14.293333a32 32 0 0 0 0 28.586666L42.666667 512l-28.586667 14.293333v0.170667l0.170667 0.256 0.426666 0.853333a318.805333 318.805333 0 0 0 8.021334 14.762667 871.509333 871.509333 0 0 0 119.296 162.218667C224.682667 792.746667 349.866667 885.333333 512 885.333333c162.133333 0 287.317333-92.586667 370.005333-180.778666a871.424 871.424 0 0 0 119.296-162.218667 507.562667 507.562667 0 0 0 7.978667-14.72l0.469333-0.896 0.128-0.256 0.042667-0.085333s0-0.085333-28.586667-14.378667z m0 0l28.586667 14.293333a32.042667 32.042667 0 0 0 0-28.629333L981.333333 512zM512 416a96 96 0 1 0 0 192 96 96 0 0 0 0-192zM352 512a160 160 0 1 1 320 0 160 160 0 0 1-320 0z" /></svg>