<?xml version="1.0" standalone="no"?><!DOCTYPE svg PUBLIC "-//W3C//DTD SVG 1.1//EN" "http://www.w3.org/Graphics/SVG/1.1/DTD/svg11.dtd"><svg class="icon" width="200px" height="200.00px" viewBox="0 0 1024 1024" version="1.1" xmlns="http://www.w3.org/2000/svg"><path fill="#333333" d="M489.984 203.306667l396.586667 396.928c21.461333-28.032 40.96-57.6 58.325333-88.32a807.466667 807.466667 0 0 0-109.568-148.650667C758.016 280.704 648.533333 202.624 512 202.624h-0.085333c-7.296 0-14.634667 0.170667-21.930667 0.64zM981.333333 512l28.586667-14.293333a32 32 0 0 1-0.384 29.397333 821.333333 821.333333 0 0 1-95.872 141.610667 32 32 0 0 1-47.146667 2.005333L399.786667 203.52a32 32 0 0 1 15.36-53.76 421.12 421.12 0 0 1 96.938666-11.093333c162.133333 0 287.274667 92.586667 369.962667 180.778666a871.594667 871.594667 0 0 1 119.296 162.218667 526.848 526.848 0 0 1 7.978667 14.72l0.469333 0.896 0.128 0.256 0.042667 0.085333v0.085334L981.333333 512zM239.146667 233.130667a32 32 0 0 1 42.026666 2.816l162.858667 162.858666 0.256 0.213334 180.693333 180.693333 0.213334 0.256 162.858666 162.858667a32 32 0 0 1-3.2 48.085333 461.653333 461.653333 0 0 1-272.341333 94.421333H512c-162.133333 0-287.317333-92.586667-370.005333-180.778666A871.509333 871.509333 0 0 1 22.698667 542.293333a514.773333 514.773333 0 0 1-7.978667-14.72l-0.469333-0.896-0.128-0.256-0.042667-0.085333s0-0.085333 28.586667-14.378667l-28.586667 14.293334a32 32 0 0 1 0.426667-29.44 819.2 819.2 0 0 1 224.64-263.722667z m-160 279.04a807.466667 807.466667 0 0 0 109.568 148.650666c77.226667 82.346667 186.581333 160.426667 322.986666 160.512a397.653333 397.653333 0 0 0 203.989334-60.373333l-114.858667-114.901333a159.701333 159.701333 0 0 1-151.936 17.493333 160 160 0 0 1-70.997333-240.384L256.085333 301.354667a755.2 755.2 0 0 0-176.938666 210.773333z m345.173333-42.581334a95.616 95.616 0 0 0-11.52 43.946667 96 96 0 0 0 141.653333 86.144l-130.133333-130.133333zM20.053333 20.053333a32 32 0 0 1 45.226667 0l938.666667 938.666667a32 32 0 1 1-45.226667 45.226667l-938.666667-938.666667a32 32 0 0 1 0-45.226667z" /></svg>